<svg width="330" height="20" viewBox="0 0 330 20" fill="none" xmlns="http://www.w3.org/2000/svg">
    <path d="M39.2292 10.1981C43.3806 10.1981 45.4563 11.4751 45.4563 14.0291C45.4563 15.2268 45.174 16.2483 44.6096 17.0938C44.0453 17.9216 43.0347 18.5733 41.578 19.0489C40.1213 19.5068 38.1003 19.7358 35.5148 19.7358H23.2245C23.3702 16.3188 23.443 13.122 23.443 10.1453C23.443 7.16865 23.3702 3.97182 23.2245 0.554824H29.6428V0.581241H35.4602C37.7179 0.581241 39.4932 0.766182 40.786 1.13606C42.097 1.48833 43.0164 2.00793 43.5445 2.69484C44.0907 3.38177 44.3638 4.25363 44.3638 5.31043C44.3638 6.38486 43.9723 7.34478 43.1894 8.19022C42.4247 9.01806 41.1046 9.68738 39.2292 10.1981ZM29.6428 5.38969V7.84676H34.8866C36.0156 7.84676 36.7985 7.74989 37.2355 7.55614C37.6906 7.36241 37.9183 7.01013 37.9183 6.49934C37.9183 6.09424 37.6816 5.81241 37.2081 5.65389C36.753 5.47777 35.9791 5.38969 34.8866 5.38969H29.6428ZM34.8866 14.9009C35.8334 14.9009 36.5527 14.8657 37.0443 14.7952C37.554 14.7072 37.9182 14.5663 38.1367 14.3725C38.3552 14.1612 38.4645 13.8794 38.4645 13.5271C38.4645 13.0691 38.2006 12.7433 37.6724 12.5495C37.1627 12.3382 36.2341 12.2325 34.8866 12.2325H29.6428V14.9009H34.8866Z" fill="url(#paint0_linear_111_245)"/>
    <path d="M71.0899 6.10303C68.2313 6.01498 65.4547 5.96214 62.7598 5.94451V19.7358H55.9318V5.94451C53.219 5.96214 50.4513 6.01498 47.629 6.10303V0.554824H71.0899V6.10303Z" fill="url(#paint1_linear_111_245)"/>
    <path d="M85.4411 20C81.2716 20 78.2034 19.1281 76.237 17.3844C74.2705 15.6231 73.2873 13.1572 73.2873 9.98679C73.2873 6.85161 74.2614 4.40336 76.2097 2.642C78.1761 0.88067 81.2532 0 85.4411 0C89.6471 0 92.7242 0.88067 94.6725 2.642C96.6389 4.40336 97.6222 6.85161 97.6222 9.98679C97.6222 13.1748 96.6481 15.6407 94.6998 17.3844C92.7515 19.1281 89.6652 20 85.4411 20ZM85.4411 14.6103C87.4622 14.6103 88.9189 14.2404 89.811 13.5007C90.7031 12.7433 91.1493 11.572 91.1493 9.98679C91.1493 8.43682 90.7031 7.28315 89.811 6.52576C88.9189 5.76839 87.4622 5.38969 85.4411 5.38969C83.4381 5.38969 81.9906 5.76839 81.0985 6.52576C80.2064 7.28315 79.7602 8.43682 79.7602 9.98679C79.7602 11.5544 80.2064 12.7169 81.0985 13.4742C81.9906 14.2316 83.4381 14.6103 85.4411 14.6103Z" fill="url(#paint2_linear_111_245)"/>
    <path d="M112.198 0.581241C115.822 0.581241 118.344 1.20652 119.764 2.45706C121.184 3.69002 121.894 5.43374 121.894 7.68824C121.894 9.23823 121.612 10.5592 121.047 11.6513C120.483 12.7257 119.491 13.5711 118.07 14.1876C116.65 14.7865 114.693 15.0859 112.198 15.0859H106.518V19.7358H99.7989C99.9446 16.3188 100.017 13.122 100.017 10.1453C100.017 7.16865 99.9446 3.97182 99.7989 0.554824H106.518V0.581241H112.198ZM110.287 9.98679C111.798 9.98679 112.927 9.93395 113.673 9.82827C114.438 9.70498 114.966 9.49362 115.257 9.19418C115.567 8.89477 115.722 8.45442 115.722 7.87318C115.722 7.29194 115.576 6.86043 115.285 6.5786C115.012 6.27918 114.493 6.07661 113.728 5.97093C112.982 5.86525 111.834 5.81241 110.287 5.81241H106.518V9.98679H110.287Z" fill="url(#paint3_linear_111_245)"/>
    <path d="M136.224 20C132.054 20 128.986 19.1281 127.02 17.3844C125.053 15.6231 124.07 13.1572 124.07 9.98679C124.07 6.85161 125.044 4.40336 126.993 2.642C128.959 0.88067 132.036 0 136.224 0C140.43 0 143.507 0.88067 145.455 2.642C147.422 4.40336 148.405 6.85161 148.405 9.98679C148.405 13.1748 147.431 15.6407 145.483 17.3844C143.535 19.1281 140.448 20 136.224 20ZM136.224 14.6103C138.245 14.6103 139.702 14.2404 140.594 13.5007C141.486 12.7433 141.932 11.572 141.932 9.98679C141.932 8.43682 141.486 7.28315 140.594 6.52576C139.702 5.76839 138.245 5.38969 136.224 5.38969C134.221 5.38969 132.774 5.76839 131.881 6.52576C130.989 7.28315 130.543 8.43682 130.543 9.98679C130.543 11.5544 130.989 12.7169 131.881 13.4742C132.774 14.2316 134.221 14.6103 136.224 14.6103Z" fill="url(#paint4_linear_111_245)"/>
    <path d="M157.028 14.9009C163.947 14.8657 168.963 14.7688 172.076 14.6103C171.949 15.3325 171.867 16.081 171.831 16.856C171.812 17.6134 171.803 18.5733 171.803 19.7358H150.582C150.728 16.3188 150.8 13.122 150.8 10.1453C150.8 7.16865 150.728 3.97182 150.582 0.554824H171.803V5.33685H157.028V7.87318C157.902 7.89081 159.194 7.8996 160.906 7.8996C163.801 7.8996 166.796 7.84676 169.891 7.74108V12.2853C166.796 12.1797 163.801 12.1268 160.906 12.1268C159.194 12.1268 157.902 12.1356 157.028 12.1532V14.9009Z" fill="url(#paint5_linear_111_245)"/>
    <path d="M205.271 0.554824L207.401 19.7358H200.327L199.89 6.05019L197.159 19.7358H190.003L187.217 6.15587L186.808 19.7358H179.734L181.864 0.554824H191.15L193.527 13.0515L195.602 0.554824H205.271Z" fill="url(#paint6_linear_111_245)"/>
    <path d="M232.467 0.554824C232.34 3.53149 232.276 6.72832 232.276 10.1453C232.276 13.5623 232.34 16.7591 232.467 19.7358H226.049V12.5495H215.998V19.7358H209.58C209.725 16.3188 209.798 13.122 209.798 10.1453C209.798 7.16865 209.725 3.97182 209.58 0.554824H215.998V7.74108H226.049V0.554824H232.467Z" fill="url(#paint7_linear_111_245)"/>
    <path d="M241.098 14.9009C248.015 14.8657 253.032 14.7688 256.145 14.6103C256.018 15.3325 255.935 16.081 255.9 16.856C255.881 17.6134 255.872 18.5733 255.872 19.7358H234.651C234.797 16.3188 234.87 13.122 234.87 10.1453C234.87 7.16865 234.797 3.97182 234.651 0.554824H255.872V5.33685H241.098V7.87318C241.971 7.89081 243.264 7.8996 244.975 7.8996C247.869 7.8996 250.866 7.84676 253.96 7.74108V12.2853C250.866 12.1797 247.869 12.1268 244.975 12.1268C243.264 12.1268 241.971 12.1356 241.098 12.1532V14.9009Z" fill="url(#paint8_linear_111_245)"/>
    <path d="M281.222 0.554824C281.095 3.53149 281.032 6.72832 281.032 10.1453C281.032 13.5623 281.095 16.7591 281.222 19.7358H274.804V12.5495H264.753V19.7358H258.335C258.481 16.3188 258.554 13.122 258.554 10.1453C258.554 7.16865 258.481 3.97182 258.335 0.554824H264.753V7.74108H274.804V0.554824H281.222Z" fill="url(#paint9_linear_111_245)"/>
    <path d="M290.099 0.581241L289.635 15.4029L296.27 0.581241H306.321C306.194 3.55791 306.13 6.74593 306.13 10.1453C306.13 13.5623 306.194 16.7591 306.321 19.7358H299.302L299.795 5.31043L293.186 19.7358H283.407C283.553 16.3188 283.626 13.122 283.626 10.1453C283.626 7.18626 283.553 3.99824 283.407 0.581241H290.099Z" fill="url(#paint10_linear_111_245)"/>
    <path d="M314.95 14.9009C321.87 14.8657 326.885 14.7688 330 14.6103C329.873 15.3325 329.79 16.081 329.753 16.856C329.736 17.6134 329.727 18.5733 329.727 19.7358H308.506C308.65 16.3188 308.723 13.122 308.723 10.1453C308.723 7.16865 308.65 3.97182 308.506 0.554824H329.727V5.33685H314.95V7.87318C315.824 7.89081 317.116 7.8996 318.828 7.8996C321.724 7.8996 324.719 7.84676 327.815 7.74108V12.2853C324.719 12.1797 321.724 12.1268 318.828 12.1268C317.116 12.1268 315.824 12.1356 314.95 12.1532V14.9009Z" fill="url(#paint11_linear_111_245)"/>
    <path d="M9.71986 3.03956C11.4861 2.40869 13.5405 2.57065 13.8473 3.38705C14.45 4.99011 11.4621 5.28923 10.8514 5.99392C10.2405 6.69863 9.88284 7.11725 9.25245 7.79126L7.11537 10.1129C6.9155 10.3975 6.99237 10.7905 7.39242 10.7905C8.66824 10.7905 10.1331 10.9146 11.2512 10.9817C15.4925 11.6098 16.2458 12.4872 16.2458 14.0811C16.2458 15.6751 12.5079 17.0027 8.40684 17.0027C4.30548 17.0027 0.517453 15.5041 0.0110087 13.7738C-0.0359765 13.5569 0.059253 12.7985 0.455983 12.3438C1.50144 11.1455 2.93129 10.8759 3.88452 9.93231L7.79372 6.33608C7.81524 6.2985 7.79555 6.25119 7.75435 6.23639C7.74112 6.23174 7.7276 6.2309 7.71406 6.23393L2.80829 7.64073C2.46204 7.71892 2.26679 7.26766 2.56538 7.08035L7.05634 4.99011C7.10831 4.95752 7.14859 4.91067 7.17687 4.85715C7.52896 4.19131 8.48096 3.48203 9.71986 3.03956Z" fill="#005EB8"/>
    <defs>
        <linearGradient id="paint0_linear_111_245" x1="0" y1="10" x2="330" y2="10" gradientUnits="userSpaceOnUse">
            <stop stop-color="#FF6B35"/>
            <stop offset="1" stop-color="#005EB8"/>
        </linearGradient>
        <linearGradient id="paint1_linear_111_245" x1="0" y1="10" x2="330" y2="10" gradientUnits="userSpaceOnUse">
            <stop stop-color="#FF6B35"/>
            <stop offset="1" stop-color="#005EB8"/>
        </linearGradient>
        <linearGradient id="paint2_linear_111_245" x1="0" y1="10" x2="330" y2="10" gradientUnits="userSpaceOnUse">
            <stop stop-color="#FF6B35"/>
            <stop offset="1" stop-color="#005EB8"/>
        </linearGradient>
        <linearGradient id="paint3_linear_111_245" x1="0" y1="10" x2="330" y2="10" gradientUnits="userSpaceOnUse">
            <stop stop-color="#FF6B35"/>
            <stop offset="1" stop-color="#005EB8"/>
        </linearGradient>
        <linearGradient id="paint4_linear_111_245" x1="0" y1="10" x2="330" y2="10" gradientUnits="userSpaceOnUse">
            <stop stop-color="#FF6B35"/>
            <stop offset="1" stop-color="#005EB8"/>
        </linearGradient>
        <linearGradient id="paint5_linear_111_245" x1="0" y1="10" x2="330" y2="10" gradientUnits="userSpaceOnUse">
            <stop stop-color="#FF6B35"/>
            <stop offset="1" stop-color="#005EB8"/>
        </linearGradient>
        <linearGradient id="paint6_linear_111_245" x1="0" y1="10" x2="330" y2="10" gradientUnits="userSpaceOnUse">
            <stop stop-color="#FF6B35"/>
            <stop offset="1" stop-color="#005EB8"/>
        </linearGradient>
        <linearGradient id="paint7_linear_111_245" x1="0" y1="10" x2="330" y2="10" gradientUnits="userSpaceOnUse">
            <stop stop-color="#FF6B35"/>
            <stop offset="1" stop-color="#005EB8"/>
        </linearGradient>
        <linearGradient id="paint8_linear_111_245" x1="0" y1="10" x2="330" y2="10" gradientUnits="userSpaceOnUse">
            <stop stop-color="#FF6B35"/>
            <stop offset="1" stop-color="#005EB8"/>
        </linearGradient>
        <linearGradient id="paint9_linear_111_245" x1="0" y1="10" x2="330" y2="10" gradientUnits="userSpaceOnUse">
            <stop stop-color="#FF6B35"/>
            <stop offset="1" stop-color="#005EB8"/>
        </linearGradient>
        <linearGradient id="paint10_linear_111_245" x1="0" y1="10" x2="330" y2="10" gradientUnits="userSpaceOnUse">
            <stop stop-color="#FF6B35"/>
            <stop offset="1" stop-color="#005EB8"/>
        </linearGradient>
        <linearGradient id="paint11_linear_111_245" x1="0" y1="10" x2="330" y2="10" gradientUnits="userSpaceOnUse">
            <stop stop-color="#FF6B35"/>
            <stop offset="1" stop-color="#005EB8"/>
        </linearGradient>
    </defs>
</svg>
